<?xml version="1.0" encoding="utf-8"?>
<!-- Generator: Adobe Illustrator 25.1.0, SVG Export Plug-In . SVG Version: 6.00 Build 0)  -->
<svg version="1.1" id="Слой_1" xmlns="http://www.w3.org/2000/svg" xmlns:xlink="http://www.w3.org/1999/xlink" x="0px" y="0px"
	 viewBox="0 0 36.1 72" style="enable-background:new 0 0 36.1 72;" xml:space="preserve">
<style type="text/css">
	.st0{fill:#F2D9E9;stroke:#7B161E;stroke-width:6.7479;stroke-miterlimit:10;}
	.st1{fill:#FFFFFF;}
</style>
<g>
	<g>
		<path class="st0" d="M36.1,68.7c-7.2,0-32.8,1.7-32.8-31c0-0.5,0-1,0-1.6c0-17.6,18.4-32.7,32.8-32.7"/>
		<path class="st1" d="M11,40.3c-0.2-0.6-1.5-4.5-0.1-6.5c1.7-2.6,6.5-1.3,9,2.1c0.2,0.4,2.9,4,1.8,7.2c-0.7,2.2-2.6,2.9-3,3
			C15.7,47.1,12.2,44.1,11,40.3z"/>
	</g>
	<path class="st1" d="M35.6,42.8c-4.1,0-7.4,3.3-7.4,7.4s3.3,7.4,7.4,7.4h0.5c0-4.7,0-10.2,0-14.8H35.6z"/>
</g>
</svg>
