<?xml version="1.0" encoding="utf-8"?>
<!-- Generator: Adobe Illustrator 25.1.0, SVG Export Plug-In . SVG Version: 6.00 Build 0)  -->
<svg version="1.1" id="Слой_1" xmlns="http://www.w3.org/2000/svg" xmlns:xlink="http://www.w3.org/1999/xlink" x="0px" y="0px"
	 viewBox="0 0 128 128" style="enable-background:new 0 0 128 128;" xml:space="preserve">
<style type="text/css">
	.st0{fill:#FFFFFF;stroke:#4F0E28;stroke-width:7.8375;stroke-miterlimit:10;}
	.st1{fill:#FFFFFF;stroke:#4F0E28;stroke-width:5.7721;stroke-miterlimit:10;}
	.st2{fill:none;stroke:#4F0E28;stroke-width:2.1064;stroke-miterlimit:10;}
	.st3{fill:none;stroke:#000000;stroke-width:1.0532;stroke-miterlimit:10;}
	.st4{fill:#4F0E28;stroke:#4F0E28;stroke-width:4;stroke-miterlimit:10;}
	.st5{fill:#4F0E28;stroke:#4F0E28;stroke-width:3;stroke-miterlimit:10;}
	.st6{fill:#4F0E28;stroke:#4F0E28;stroke-width:6.8578;stroke-miterlimit:10;}
	.st7{fill:none;stroke:#4F0E28;stroke-width:6.8578;stroke-miterlimit:10;}
</style>
<g>
	<path class="st0" d="M115.8,124.1H12.2c-4.6,0-8.3-3.7-8.3-8.3V12.2c0-4.6,3.7-8.3,8.3-8.3h13.7h69.5c2.2,0,4.3,0.9,5.8,2.4
		l20.4,20.4c1.5,1.5,2.4,3.6,2.4,5.8v83.2C124,120.4,120.3,124.1,115.8,124.1z"/>
	<path class="st0" d="M25.9,3.9v40.3c0,1.4,1.2,2.6,2.6,2.6h54.1c1.4,0,2.6-1.2,2.6-2.6V3.9H25.9z"/>
	<rect x="59" y="9.6" class="st1" width="16.3" height="26.6"/>
	<g>
		<path class="st2" d="M90.5,31.5"/>
		<path class="st2" d="M90.5,18.4"/>
		<path class="st2" d="M98.7,31.5"/>
		<path class="st2" d="M98.7,18.4"/>
		<path class="st2" d="M101.8,31.5"/>
		<path class="st2" d="M101.8,18.4"/>
		<path class="st3" d="M103.3,31.2"/>
	</g>
	<polygon class="st4" points="11.6,23.3 13.4,18.4 15.2,23.3 12.9,23.3 	"/>
	<rect x="12.9" y="23.3" class="st5" width="1.1" height="3.4"/>
	<rect x="12.9" y="110.8" class="st6" width="3.4" height="4.1"/>
	<rect x="108.8" y="110.8" class="st7" width="3.4" height="4.1"/>
	<path class="st0" d="M94.7,67c-0.1-1.7-1.4-3-3.1-3H29c-1.7,0-3.1,1.4-3.1,3.1l0.1,55.6l69.2,0.1L94.7,67z"/>
	<line class="st7" x1="25.9" y1="84.9" x2="95.2" y2="84.9"/>
	<line class="st7" x1="26.5" y1="98.3" x2="95.7" y2="98.3"/>
	<line class="st7" x1="26" y1="111.3" x2="95.3" y2="111.3"/>
</g>
</svg>
